<svg xmlns="http://www.w3.org/2000/svg" xmlns:xlink="http://www.w3.org/1999/xlink" width="350" zoomAndPan="magnify" viewBox="0 0 262.5 74.999997" height="100" preserveAspectRatio="xMidYMid meet" version="1.0"><defs><g/><clipPath id="5ec84f9220"><path d="M 8 15 L 41 15 L 41 58.476562 L 8 58.476562 Z M 8 15 " clip-rule="nonzero"/></clipPath><clipPath id="a63fed0978"><path d="M 2 15 L 22 15 L 22 58.476562 L 2 58.476562 Z M 2 15 " clip-rule="nonzero"/></clipPath><clipPath id="16218cfdf7"><path d="M 18 20 L 45 20 L 45 58.476562 L 18 58.476562 Z M 18 20 " clip-rule="nonzero"/></clipPath></defs><g clip-path="url(#5ec84f9220)"><path fill="#c448d6" d="M 39.183594 20.242188 C 39.183594 20.242188 33.40625 15.355469 25.726562 23.363281 C 25.417969 22.457031 24.5625 21.804688 23.550781 21.804688 C 22.941406 21.804688 22.386719 22.046875 21.976562 22.433594 C 17.425781 12.808594 10.238281 15.703125 10.238281 15.703125 L 8.660156 17.511719 C 8.660156 17.511719 27.199219 17.941406 17.460938 49.066406 C 17.460938 49.066406 18.523438 54.753906 18.105469 58.71875 C 18.105469 58.71875 19.519531 53.363281 20.546875 51.699219 C 21.574219 50.039062 21.941406 49.632812 21.941406 49.632812 C 23.042969 17.941406 40.25 22.871094 40.25 22.871094 L 39.183594 20.242188 " fill-opacity="1" fill-rule="nonzero"/><path fill="#c448d6" d="M 12.761719 15.292969 C 11.253906 15.292969 10.238281 15.703125 10.238281 15.703125 L 8.660156 17.511719 C 8.660156 17.511719 27.199219 17.941406 17.460938 49.066406 C 17.460938 49.066406 18.523438 54.753906 18.105469 58.71875 C 18.105469 58.71875 19.519531 53.363281 20.546875 51.699219 C 21.574219 50.039062 21.941406 49.632812 21.941406 49.632812 C 22.78125 25.460938 32.992188 22.59375 37.789062 22.59375 C 39.28125 22.59375 40.25 22.871094 40.25 22.871094 L 39.183594 20.242188 C 39.183594 20.242188 37.4375 18.765625 34.589844 18.765625 C 32.257812 18.765625 29.183594 19.757812 25.726562 23.363281 C 25.417969 22.457031 24.5625 21.804688 23.550781 21.804688 C 22.941406 21.804688 22.386719 22.046875 21.976562 22.433594 C 19.136719 16.425781 15.265625 15.292969 12.761719 15.292969 Z M 12.757812 15.292969 L 12.761719 15.398438 C 14.332031 15.398438 15.824219 15.835938 17.1875 16.695312 C 19.046875 17.871094 20.628906 19.816406 21.886719 22.476562 C 21.898438 22.507812 21.925781 22.527344 21.957031 22.535156 C 21.964844 22.535156 21.972656 22.535156 21.976562 22.535156 C 22.003906 22.535156 22.027344 22.527344 22.046875 22.507812 C 22.457031 22.121094 22.992188 21.90625 23.550781 21.90625 C 24.492188 21.90625 25.328125 22.507812 25.628906 23.398438 C 25.640625 23.429688 25.667969 23.457031 25.703125 23.464844 C 25.710938 23.464844 25.71875 23.464844 25.726562 23.464844 C 25.753906 23.464844 25.777344 23.457031 25.796875 23.433594 C 28.707031 20.40625 31.664062 18.867188 34.589844 18.867188 C 37.210938 18.867188 38.902344 20.148438 39.097656 20.304688 L 40.078125 22.722656 C 39.722656 22.640625 38.90625 22.492188 37.789062 22.492188 C 35.246094 22.492188 31.539062 23.269531 28.304688 26.980469 C 24.386719 31.480469 22.210938 39.085938 21.839844 49.59375 C 21.742188 49.710938 21.347656 50.214844 20.460938 51.648438 C 19.699219 52.878906 18.742188 56.054688 18.28125 57.691406 C 18.441406 54.007812 17.636719 49.453125 17.566406 49.074219 C 19.65625 42.390625 20.59375 36.601562 20.355469 31.871094 C 20.160156 27.996094 19.175781 24.804688 17.4375 22.378906 C 15.640625 19.875 13.351562 18.65625 11.75 18.078125 C 10.398438 17.585938 9.3125 17.457031 8.871094 17.421875 L 10.300781 15.789062 C 10.453125 15.730469 11.410156 15.398438 12.757812 15.398438 L 12.757812 15.292969 " fill-opacity="1" fill-rule="nonzero"/></g><g clip-path="url(#a63fed0978)"><path fill="#03989e" d="M 20.441406 44.488281 L 21.074219 40.914062 C 21.074219 40.914062 18.105469 34.476562 10.773438 33.484375 C 10.773438 33.484375 10.722656 33.453125 10.632812 33.386719 C 11.886719 33.328125 12.933594 32.347656 13.046875 31.0625 C 13.167969 29.660156 12.128906 28.421875 10.726562 28.300781 C 9.324219 28.179688 8.085938 29.21875 7.964844 30.621094 C 7.957031 30.707031 7.953125 30.796875 7.953125 30.882812 C 5.570312 27.902344 3.542969 22.507812 10.578125 15.457031 C 10.578125 15.457031 2.703125 16.714844 2.058594 24.074219 C 1.421875 31.433594 11.738281 36.679688 18.101562 58.839844 C 18.101562 58.839844 18.753906 53.773438 17.746094 50.039062 C 15.230469 40.726562 12.0625 36.949219 12.0625 36.949219 C 12.0625 36.949219 15.792969 37.023438 20.441406 44.488281 " fill-opacity="1" fill-rule="nonzero"/><path fill="#03989e" d="M 10.578125 15.457031 C 10.578125 15.457031 2.703125 16.714844 2.058594 24.074219 C 1.421875 31.433594 11.738281 36.679688 18.101562 58.839844 C 18.101562 58.839844 18.753906 53.773438 17.746094 50.039062 C 15.230469 40.726562 12.0625 36.949219 12.0625 36.949219 C 12.0625 36.949219 15.792969 37.023438 20.441406 44.488281 L 21.074219 40.914062 C 21.074219 40.914062 18.105469 34.476562 10.773438 33.484375 C 10.773438 33.484375 10.722656 33.453125 10.632812 33.386719 C 11.886719 33.328125 12.933594 32.347656 13.046875 31.0625 C 13.167969 29.660156 12.128906 28.421875 10.726562 28.300781 C 10.652344 28.292969 10.578125 28.289062 10.503906 28.289062 C 9.195312 28.289062 8.078125 29.292969 7.964844 30.621094 C 7.957031 30.707031 7.953125 30.796875 7.953125 30.882812 C 5.570312 27.902344 3.542969 22.507812 10.578125 15.457031 Z M 10.273438 15.625 C 3.625 22.445312 5.285156 27.714844 7.875 30.945312 C 7.894531 30.96875 7.925781 30.984375 7.953125 30.984375 C 7.964844 30.984375 7.976562 30.980469 7.988281 30.976562 C 8.03125 30.964844 8.058594 30.925781 8.058594 30.882812 C 8.054688 30.792969 8.058594 30.710938 8.066406 30.628906 C 8.121094 30.015625 8.398438 29.449219 8.855469 29.03125 C 9.308594 28.621094 9.894531 28.394531 10.503906 28.394531 C 10.574219 28.394531 10.644531 28.394531 10.71875 28.402344 C 12.0625 28.519531 13.0625 29.710938 12.945312 31.054688 C 12.839844 32.269531 11.84375 33.230469 10.625 33.285156 C 10.582031 33.289062 10.546875 33.320312 10.535156 33.359375 C 10.519531 33.402344 10.539062 33.449219 10.574219 33.472656 C 10.667969 33.535156 10.71875 33.570312 10.722656 33.570312 C 10.734375 33.578125 10.746094 33.582031 10.761719 33.585938 C 14.515625 34.09375 17.09375 36.066406 18.59375 37.636719 C 20.105469 39.210938 20.863281 40.707031 20.96875 40.925781 L 20.386719 44.210938 C 18.035156 40.488281 15.925781 38.691406 14.5625 37.835938 C 13.042969 36.878906 12.105469 36.851562 12.066406 36.847656 C 12.0625 36.847656 12.0625 36.847656 12.0625 36.847656 C 12.023438 36.847656 11.988281 36.871094 11.972656 36.90625 C 11.953125 36.941406 11.960938 36.984375 11.984375 37.015625 C 12.015625 37.054688 15.171875 40.886719 17.648438 50.0625 C 18.453125 53.046875 18.1875 56.933594 18.054688 58.3125 C 14.558594 46.378906 9.933594 39.441406 6.546875 34.355469 C 3.734375 30.132812 1.878906 27.347656 2.160156 24.082031 C 2.304688 22.425781 2.835938 20.945312 3.742188 19.6875 C 4.464844 18.679688 5.429688 17.804688 6.605469 17.097656 C 8.132812 16.175781 9.632812 15.769531 10.273438 15.625 " fill-opacity="1" fill-rule="nonzero"/></g><g clip-path="url(#16218cfdf7)"><path fill="#f63aa9" d="M 20.441406 44.488281 L 20.957031 40.867188 C 20.957031 40.867188 25.816406 35.707031 33.082031 37.097656 C 33.082031 37.097656 33.140625 37.082031 33.25 37.050781 C 32.078125 36.59375 31.394531 35.332031 31.699219 34.078125 C 32.027344 32.710938 33.40625 31.867188 34.777344 32.195312 C 36.144531 32.527344 36.988281 33.902344 36.65625 35.273438 C 36.636719 35.359375 36.613281 35.441406 36.582031 35.523438 C 39.792969 33.457031 43.429688 28.988281 38.996094 20.066406 C 38.996094 20.066406 46.066406 23.761719 44.335938 30.941406 C 42.605469 38.125 31.152344 39.820312 18.082031 58.808594 C 18.082031 58.808594 19.074219 53.796875 21.214844 50.578125 C 26.554688 42.546875 30.761719 39.972656 30.761719 39.972656 C 30.761719 39.972656 27.21875 38.886719 20.441406 44.488281 " fill-opacity="1" fill-rule="nonzero"/><path fill="#f63aa9" d="M 38.996094 20.066406 C 43.429688 28.988281 39.792969 33.457031 36.582031 35.523438 C 36.613281 35.441406 36.636719 35.359375 36.65625 35.273438 C 36.988281 33.902344 36.144531 32.527344 34.777344 32.195312 C 34.574219 32.148438 34.375 32.125 34.175781 32.125 C 33.023438 32.125 31.980469 32.910156 31.699219 34.078125 C 31.394531 35.332031 32.078125 36.59375 33.25 37.050781 C 33.140625 37.082031 33.082031 37.097656 33.082031 37.097656 C 32.21875 36.929688 31.394531 36.859375 30.601562 36.859375 C 24.734375 36.859375 20.957031 40.867188 20.957031 40.867188 L 20.441406 44.488281 C 25.324219 40.453125 28.527344 39.886719 29.9375 39.886719 C 30.484375 39.886719 30.761719 39.972656 30.761719 39.972656 C 30.761719 39.972656 26.554688 42.546875 21.214844 50.578125 C 19.074219 53.796875 18.082031 58.808594 18.082031 58.808594 C 31.152344 39.820312 42.605469 38.125 44.335938 30.941406 C 46.066406 23.761719 38.996094 20.066406 38.996094 20.066406 Z M 39.234375 20.320312 C 39.792969 20.660156 41.085938 21.523438 42.242188 22.882812 C 43.132812 23.929688 43.769531 25.0625 44.132812 26.246094 C 44.589844 27.726562 44.625 29.300781 44.234375 30.917969 C 43.46875 34.101562 40.820312 36.15625 36.816406 39.265625 C 31.988281 43.007812 25.402344 48.121094 18.292969 58.328125 C 18.605469 56.976562 19.589844 53.207031 21.300781 50.632812 C 26.5625 42.71875 30.773438 40.085938 30.8125 40.058594 C 30.847656 40.039062 30.867188 40 30.863281 39.960938 C 30.855469 39.921875 30.828125 39.886719 30.789062 39.875 C 30.777344 39.871094 30.492188 39.785156 29.9375 39.785156 C 28.476562 39.785156 25.332031 40.371094 20.578125 44.246094 L 21.050781 40.914062 C 21.203125 40.761719 22.121094 39.851562 23.632812 38.949219 C 25.152344 38.042969 27.59375 36.960938 30.601562 36.960938 C 31.417969 36.960938 32.246094 37.039062 33.0625 37.195312 C 33.070312 37.195312 33.074219 37.199219 33.082031 37.199219 C 33.089844 37.199219 33.097656 37.195312 33.105469 37.195312 C 33.109375 37.195312 33.167969 37.179688 33.277344 37.148438 C 33.320312 37.136719 33.347656 37.101562 33.351562 37.054688 C 33.355469 37.011719 33.328125 36.972656 33.285156 36.957031 C 32.152344 36.515625 31.511719 35.289062 31.796875 34.101562 C 32.0625 33 33.042969 32.226562 34.175781 32.226562 C 34.367188 32.226562 34.5625 32.25 34.753906 32.296875 C 35.386719 32.449219 35.925781 32.839844 36.265625 33.398438 C 36.609375 33.957031 36.710938 34.613281 36.558594 35.25 C 36.539062 35.328125 36.515625 35.410156 36.488281 35.492188 C 36.472656 35.53125 36.484375 35.578125 36.519531 35.605469 C 36.539062 35.617188 36.5625 35.625 36.582031 35.625 C 36.601562 35.625 36.621094 35.621094 36.636719 35.609375 C 40.121094 33.367188 43.371094 28.898438 39.234375 20.320312 " fill-opacity="1" fill-rule="nonzero"/></g><g fill="#000000" fill-opacity="1"><g transform="translate(58.553075, 35.392047)"><g><path d="M 1.59375 0 L 4.984375 0 L 4.984375 -7.171875 L 10.140625 -7.171875 C 14.5 -7.171875 17.46875 -9.671875 17.46875 -13.34375 C 17.46875 -17 14.53125 -19.546875 10.171875 -19.546875 L 1.59375 -19.546875 Z M 4.984375 -9.890625 L 4.984375 -16.8125 L 9.8125 -16.8125 C 12.34375 -16.8125 14.0625 -15.375 14.0625 -13.34375 C 14.0625 -11.296875 12.328125 -9.890625 9.8125 -9.890625 Z M 4.984375 -9.890625 "/></g></g></g><g fill="#000000" fill-opacity="1"><g transform="translate(76.578307, 35.392047)"><g><path d="M 1.234375 0 L 4.359375 0 L 4.359375 -7.828125 C 4.359375 -10.21875 6.015625 -11.875 8.328125 -11.875 C 10.171875 -11.875 11.359375 -10.609375 11.359375 -8.59375 L 11.359375 0 L 14.46875 0 L 14.46875 -9.34375 C 14.46875 -12.5625 12.625 -14.5 9.5625 -14.5 C 7.21875 -14.5 5.484375 -13.484375 4.375 -11.71875 L 4.359375 -11.71875 L 4.359375 -20.375 L 1.234375 -20.375 Z M 1.234375 0 "/></g></g></g><g fill="#000000" fill-opacity="1"><g transform="translate(92.178125, 35.392047)"><g><path d="M 5.703125 0.5 C 8.125 0.5 10.03125 -0.640625 10.96875 -2.375 L 11 -2.375 L 11.046875 -1.796875 C 11.15625 -0.53125 12.265625 0.5 13.78125 0.5 C 14.96875 0.5 16.265625 -0.03125 16.984375 -0.875 L 15.90625 -2.640625 C 15.59375 -2.203125 15.15625 -1.90625 14.796875 -1.90625 C 14.328125 -1.90625 14.0625 -2.28125 14.0625 -2.859375 L 14.0625 -9.171875 C 14.0625 -12.484375 11.46875 -14.578125 7.640625 -14.578125 C 3.828125 -14.578125 1.109375 -12.4375 0.859375 -9.84375 L 3.796875 -9.125 C 3.90625 -10.671875 5.453125 -12.09375 7.65625 -12.09375 C 9.640625 -12.09375 11 -11.140625 11 -9.640625 C 11 -9.0625 10.5625 -8.6875 9.890625 -8.59375 L 6.78125 -8.234375 C 2.390625 -7.71875 0.5 -5.953125 0.5 -3.640625 C 0.5 -1.15625 2.640625 0.5 5.703125 0.5 Z M 6.640625 -1.90625 C 4.875 -1.90625 3.578125 -2.671875 3.578125 -3.890625 C 3.578125 -4.96875 4.515625 -5.890625 7.390625 -6.234375 L 10.9375 -6.640625 L 10.9375 -5.875 C 10.9375 -3.53125 9.125 -1.90625 6.640625 -1.90625 Z M 6.640625 -1.90625 "/></g></g></g><g fill="#000000" fill-opacity="1"><g transform="translate(109.156015, 35.392047)"><g><path d="M 8.21875 -14.53125 C 6.453125 -14.53125 4.984375 -13.484375 4.21875 -11.765625 L 4.1875 -11.765625 L 3.78125 -14.03125 L 1.234375 -14.03125 L 1.234375 0 L 4.359375 0 L 4.359375 -7.65625 C 4.359375 -10.359375 5.546875 -11.984375 7.46875 -11.984375 C 8.84375 -11.984375 9.75 -10.96875 9.921875 -9.125 L 12.5625 -9.890625 C 12.265625 -12.84375 10.609375 -14.53125 8.21875 -14.53125 Z M 8.21875 -14.53125 "/></g></g></g><g fill="#000000" fill-opacity="1"><g transform="translate(122.220176, 35.392047)"><g><path d="M 1.234375 0 L 4.359375 0 L 4.359375 -7.75 C 4.359375 -10.140625 5.65625 -11.796875 7.890625 -11.796875 C 9.671875 -11.796875 10.71875 -10.6875 10.71875 -8.84375 L 10.71875 0 L 13.8125 0 L 13.8125 -7.75 C 13.8125 -10.140625 15.125 -11.796875 17.34375 -11.796875 C 19.125 -11.796875 20.171875 -10.6875 20.171875 -8.84375 L 20.171875 0 L 23.296875 0 L 23.296875 -9.34375 C 23.296875 -12.59375 21.546875 -14.5 18.65625 -14.5 C 16.53125 -14.5 14.640625 -13.5625 13.484375 -11.546875 L 13.453125 -11.546875 C 12.78125 -13.453125 11.328125 -14.5 9.125 -14.5 C 6.890625 -14.5 5.078125 -13.453125 4.25 -11.71875 L 4.21875 -11.71875 L 3.796875 -14.03125 L 1.234375 -14.03125 Z M 1.234375 0 "/></g></g></g><g fill="#000000" fill-opacity="1"><g transform="translate(146.639677, 35.392047)"><g><path d="M 5.703125 0.5 C 8.125 0.5 10.03125 -0.640625 10.96875 -2.375 L 11 -2.375 L 11.046875 -1.796875 C 11.15625 -0.53125 12.265625 0.5 13.78125 0.5 C 14.96875 0.5 16.265625 -0.03125 16.984375 -0.875 L 15.90625 -2.640625 C 15.59375 -2.203125 15.15625 -1.90625 14.796875 -1.90625 C 14.328125 -1.90625 14.0625 -2.28125 14.0625 -2.859375 L 14.0625 -9.171875 C 14.0625 -12.484375 11.46875 -14.578125 7.640625 -14.578125 C 3.828125 -14.578125 1.109375 -12.4375 0.859375 -9.84375 L 3.796875 -9.125 C 3.90625 -10.671875 5.453125 -12.09375 7.65625 -12.09375 C 9.640625 -12.09375 11 -11.140625 11 -9.640625 C 11 -9.0625 10.5625 -8.6875 9.890625 -8.59375 L 6.78125 -8.234375 C 2.390625 -7.71875 0.5 -5.953125 0.5 -3.640625 C 0.5 -1.15625 2.640625 0.5 5.703125 0.5 Z M 6.640625 -1.90625 C 4.875 -1.90625 3.578125 -2.671875 3.578125 -3.890625 C 3.578125 -4.96875 4.515625 -5.890625 7.390625 -6.234375 L 10.9375 -6.640625 L 10.9375 -5.875 C 10.9375 -3.53125 9.125 -1.90625 6.640625 -1.90625 Z M 6.640625 -1.90625 "/></g></g></g><g fill="#000000" fill-opacity="1"><g transform="translate(163.617567, 35.392047)"><g/></g></g><g fill="#000000" fill-opacity="1"><g transform="translate(170.452817, 35.392047)"><g><path d="M 1.59375 0 L 5.015625 0 L 5.015625 -8.703125 L 14.46875 -8.703125 L 14.46875 0 L 17.921875 0 L 17.921875 -19.546875 L 14.46875 -19.546875 L 14.46875 -11.578125 L 5.015625 -11.578125 L 5.015625 -19.546875 L 1.59375 -19.546875 Z M 1.59375 0 "/></g></g></g><g fill="#000000" fill-opacity="1"><g transform="translate(189.966364, 35.392047)"><g><path d="M 8.796875 0.546875 C 11.859375 0.546875 14.5 -0.875 15.484375 -2.953125 L 13.421875 -4.21875 C 12.59375 -2.890625 10.859375 -1.90625 8.875 -1.90625 C 6.203125 -1.90625 4.21875 -3.578125 3.9375 -6.09375 L 15.015625 -6.09375 C 15.109375 -6.421875 15.125 -6.890625 15.125 -7.28125 C 15.109375 -11.546875 12.328125 -14.578125 8.078125 -14.578125 C 3.75 -14.578125 0.71875 -11.5 0.71875 -7.109375 C 0.71875 -2.640625 4.078125 0.546875 8.796875 0.546875 Z M 3.9375 -8.21875 C 4.25 -10.53125 5.875 -12.125 8.078125 -12.125 C 10.21875 -12.125 11.71875 -10.6875 11.9375 -8.21875 Z M 3.9375 -8.21875 "/></g></g></g><g fill="#000000" fill-opacity="1"><g transform="translate(206.06229, 35.392047)"><g><path d="M 5.703125 0.5 C 8.125 0.5 10.03125 -0.640625 10.96875 -2.375 L 11 -2.375 L 11.046875 -1.796875 C 11.15625 -0.53125 12.265625 0.5 13.78125 0.5 C 14.96875 0.5 16.265625 -0.03125 16.984375 -0.875 L 15.90625 -2.640625 C 15.59375 -2.203125 15.15625 -1.90625 14.796875 -1.90625 C 14.328125 -1.90625 14.0625 -2.28125 14.0625 -2.859375 L 14.0625 -9.171875 C 14.0625 -12.484375 11.46875 -14.578125 7.640625 -14.578125 C 3.828125 -14.578125 1.109375 -12.4375 0.859375 -9.84375 L 3.796875 -9.125 C 3.90625 -10.671875 5.453125 -12.09375 7.65625 -12.09375 C 9.640625 -12.09375 11 -11.140625 11 -9.640625 C 11 -9.0625 10.5625 -8.6875 9.890625 -8.59375 L 6.78125 -8.234375 C 2.390625 -7.71875 0.5 -5.953125 0.5 -3.640625 C 0.5 -1.15625 2.640625 0.5 5.703125 0.5 Z M 6.640625 -1.90625 C 4.875 -1.90625 3.578125 -2.671875 3.578125 -3.890625 C 3.578125 -4.96875 4.515625 -5.890625 7.390625 -6.234375 L 10.9375 -6.640625 L 10.9375 -5.875 C 10.9375 -3.53125 9.125 -1.90625 6.640625 -1.90625 Z M 6.640625 -1.90625 "/></g></g></g><g fill="#000000" fill-opacity="1"><g transform="translate(223.040179, 35.392047)"><g><path d="M 1.234375 0 L 4.359375 0 L 4.359375 -20.375 L 1.234375 -20.375 Z M 1.234375 0 "/></g></g></g><g fill="#000000" fill-opacity="1"><g transform="translate(228.635165, 35.392047)"><g><path d="M 7.828125 0.546875 C 10.03125 0.546875 12.125 -0.6875 12.8125 -2.734375 L 11.296875 -4.359375 C 10.828125 -2.84375 9.734375 -2.015625 8.375 -2.015625 C 7 -2.015625 6.03125 -3.0625 6.03125 -4.609375 L 6.015625 -11.578125 L 11.96875 -11.578125 L 11.96875 -14.03125 L 6.015625 -14.03125 L 6.03125 -18.71875 L 2.921875 -18.03125 L 2.921875 -14.03125 L 0.0625 -14.03125 L 0.0625 -11.578125 L 2.921875 -11.578125 L 2.921875 -4.1875 C 2.921875 -1.328125 4.84375 0.546875 7.828125 0.546875 Z M 7.828125 0.546875 "/></g></g></g><g fill="#000000" fill-opacity="1"><g transform="translate(241.644188, 35.392047)"><g><path d="M 1.234375 0 L 4.359375 0 L 4.359375 -7.828125 C 4.359375 -10.21875 6.015625 -11.875 8.328125 -11.875 C 10.171875 -11.875 11.359375 -10.609375 11.359375 -8.59375 L 11.359375 0 L 14.46875 0 L 14.46875 -9.34375 C 14.46875 -12.5625 12.625 -14.5 9.5625 -14.5 C 7.21875 -14.5 5.484375 -13.484375 4.375 -11.71875 L 4.359375 -11.71875 L 4.359375 -20.375 L 1.234375 -20.375 Z M 1.234375 0 "/></g></g></g><g fill="#03989e" fill-opacity="1"><g transform="translate(94.986705, 57.531761)"><g/></g></g><g fill="#03989e" fill-opacity="1"><g transform="translate(99.362735, 57.531761)"><g/></g></g><g fill="#03989e" fill-opacity="1"><g transform="translate(103.738765, 57.531761)"><g/></g></g><g fill="#03989e" fill-opacity="1"><g transform="translate(108.12548, 57.531761)"><g><path d="M 7.203125 1.75 C 7.53125 1.90625 8.546875 2.265625 8.921875 1.578125 C 9.09375 1.234375 8.015625 1.0625 7.671875 0.90625 C 6.78125 0.4375 5.96875 -0.328125 5.28125 -1.03125 C 4.6875 -1.671875 4.140625 -2.53125 3.21875 -3.8125 C 5.84375 -5.859375 7.4375 -7.234375 8.90625 -9.046875 C 9.1875 -9.4375 9.515625 -9.8125 9.28125 -10.296875 C 9.09375 -10.671875 8.59375 -11.3125 8.390625 -10.875 C 8.046875 -10.125 7.546875 -9.46875 7.21875 -9.0625 C 6.59375 -8.328125 3.96875 -5.5625 2.296875 -4.875 C 2.515625 -5.5 3.3125 -7.71875 4.109375 -10.390625 C 4.265625 -10.84375 4.71875 -11.796875 4.6875 -12.03125 C 4.625 -12.34375 3.671875 -12.859375 3.453125 -12.34375 C 3.109375 -11.46875 2.875 -10.734375 2.671875 -10.109375 C 2.15625 -8.375 1.6875 -6.65625 1.125 -4.9375 C 0.8125 -3.96875 0.484375 -2.984375 0.15625 -1.984375 C -0.078125 -1.25 -0.421875 -0.3125 -0.5625 1.03125 C -0.609375 1.5 0.609375 1.828125 0.71875 1.453125 C 1.03125 0.328125 1.1875 -0.890625 1.875 -2.78125 C 2.078125 -2.984375 2.21875 -3.0625 2.390625 -3.234375 C 3.0625 -2.046875 4.890625 0.59375 7.203125 1.75 Z M 7.203125 1.75 "/></g></g></g><g fill="#03989e" fill-opacity="1"><g transform="translate(115.720084, 57.531761)"><g><path d="M 2.4375 0.265625 C 3.421875 0.265625 4.59375 -0.359375 5.21875 -1.078125 C 5.734375 -1.703125 5.734375 -2.328125 5.625 -2.21875 C 4.453125 -1.046875 3.171875 -0.640625 2.265625 -0.640625 C 1.921875 -0.640625 1.640625 -0.703125 1.5 -0.875 C 1.21875 -1.1875 1.234375 -1.71875 1.390625 -2.265625 C 1.703125 -2.0625 2.140625 -1.953125 2.453125 -1.953125 C 2.546875 -1.953125 2.625 -1.953125 2.703125 -1.96875 C 3.640625 -2.171875 4.265625 -2.984375 4.5 -3.75 C 4.609375 -4.046875 4.65625 -4.34375 4.65625 -4.59375 C 4.65625 -4.703125 4.65625 -4.796875 4.625 -4.90625 C 4.578125 -5.21875 4.46875 -5.40625 4.171875 -5.578125 C 4 -5.6875 3.796875 -5.734375 3.59375 -5.734375 C 2.3125 -5.734375 0.1875 -3.875 0.1875 -1.875 C 0.1875 -1.296875 0.234375 -0.828125 0.828125 -0.328125 C 1.234375 0 1.859375 0.265625 2.4375 0.265625 Z M 1.8125 -3.015625 C 2.3125 -3.9375 3.671875 -5.015625 3.796875 -4.78125 C 3.9375 -4.53125 2.875 -3.453125 2.703125 -3.328125 C 2.484375 -3.125 2.140625 -2.859375 1.8125 -3.015625 Z M 1.8125 -3.015625 "/></g></g></g><g fill="#03989e" fill-opacity="1"><g transform="translate(120.98212, 57.531761)"><g><path d="M 2.4375 0.265625 C 3.421875 0.265625 4.59375 -0.359375 5.21875 -1.078125 C 5.734375 -1.703125 5.734375 -2.328125 5.625 -2.21875 C 4.453125 -1.046875 3.171875 -0.640625 2.265625 -0.640625 C 1.921875 -0.640625 1.640625 -0.703125 1.5 -0.875 C 1.21875 -1.1875 1.234375 -1.71875 1.390625 -2.265625 C 1.703125 -2.0625 2.140625 -1.953125 2.453125 -1.953125 C 2.546875 -1.953125 2.625 -1.953125 2.703125 -1.96875 C 3.640625 -2.171875 4.265625 -2.984375 4.5 -3.75 C 4.609375 -4.046875 4.65625 -4.34375 4.65625 -4.59375 C 4.65625 -4.703125 4.65625 -4.796875 4.625 -4.90625 C 4.578125 -5.21875 4.46875 -5.40625 4.171875 -5.578125 C 4 -5.6875 3.796875 -5.734375 3.59375 -5.734375 C 2.3125 -5.734375 0.1875 -3.875 0.1875 -1.875 C 0.1875 -1.296875 0.234375 -0.828125 0.828125 -0.328125 C 1.234375 0 1.859375 0.265625 2.4375 0.265625 Z M 1.8125 -3.015625 C 2.3125 -3.9375 3.671875 -5.015625 3.796875 -4.78125 C 3.9375 -4.53125 2.875 -3.453125 2.703125 -3.328125 C 2.484375 -3.125 2.140625 -2.859375 1.8125 -3.015625 Z M 1.8125 -3.015625 "/></g></g></g><g fill="#03989e" fill-opacity="1"><g transform="translate(126.244156, 57.531761)"><g><path d="M -0.046875 7 C -0.4375 6.40625 -0.359375 5.71875 -0.234375 5.046875 C -0.046875 3.921875 0.3125 2.859375 0.65625 1.75 C 1.28125 -0.328125 2.703125 -2.40625 4.28125 -3.859375 C 4.546875 -4.078125 5.078125 -4.578125 5.46875 -4.578125 C 5.5625 -4.578125 5.59375 -4.46875 5.59375 -4.3125 C 5.609375 -3.65625 5 -2.484375 4.703125 -2.03125 C 4.328125 -1.40625 3.53125 -0.828125 2.78125 -0.984375 C 2.359375 -1.0625 2.71875 -0.015625 3.625 -0.015625 C 5.234375 -0.015625 6.640625 -2.75 6.6875 -3.65625 C 6.828125 -4.53125 6.203125 -5.484375 5.375 -5.484375 C 5.234375 -5.484375 5.078125 -5.46875 4.9375 -5.40625 C 4.125 -5.125 3.328125 -4.171875 3.109375 -3.9375 C 2.9375 -3.765625 2.75 -3.59375 2.1875 -2.828125 C 2.734375 -4.03125 3.078125 -4.890625 3.65625 -5.984375 C 3.875 -6.40625 3.75 -6.6875 3.53125 -6.75 C 3.109375 -6.859375 2.96875 -6.90625 2.765625 -6.796875 C 2.546875 -6.6875 2.328125 -6.3125 1.921875 -5.296875 C 1.46875 -4.21875 1.03125 -3.125 0.640625 -2.03125 C -0.078125 -0.125 -0.734375 1.8125 -1.234375 3.765625 C -1.453125 4.609375 -1.703125 5.5 -1.5 6.25 C -1.1875 7.4375 0.1875 7.375 -0.046875 7 Z M -0.046875 7 "/></g></g></g><g fill="#03989e" fill-opacity="1"><g transform="translate(133.89301, 57.531761)"><g><path d="M 2.671875 -6.53125 C 3.140625 -6.53125 3.734375 -7.625 3.734375 -8.046875 C 3.734375 -8.28125 3.6875 -8.46875 3.5625 -8.59375 C 3.34375 -8.8125 3.171875 -8.90625 3 -8.90625 C 2.484375 -8.90625 2.25 -7.875 2.25 -7.453125 C 2.25 -7.140625 2.28125 -6.90625 2.359375 -6.78125 C 2.4375 -6.609375 2.5625 -6.53125 2.671875 -6.53125 Z M 2.28125 0.21875 C 3.53125 0.109375 5.046875 -2.1875 4.46875 -1.8125 C 4.171875 -1.6875 2.59375 -0.328125 1.75 -0.796875 C 1.5 -0.9375 1.5 -1.28125 1.5 -1.390625 C 1.5 -2.140625 1.75 -3.140625 2.484375 -4.671875 C 2.609375 -4.921875 2.5625 -5.15625 1.9375 -5.296875 C 1.5625 -5.40625 1.390625 -5.375 1.15625 -4.796875 C 1.015625 -4.4375 0.59375 -3.34375 0.421875 -2.4375 C 0 -0.375 1.265625 0.3125 2.28125 0.21875 Z M 2.28125 0.21875 "/></g></g></g><g fill="#03989e" fill-opacity="1"><g transform="translate(138.142467, 57.531761)"><g><path d="M 6.09375 0.21875 C 6.265625 0.21875 6.421875 0.203125 6.5625 0.15625 C 7.09375 0.03125 7.4375 -0.234375 7.9375 -0.765625 C 8.359375 -1.171875 8.578125 -1.8125 8.40625 -1.734375 C 8.125 -1.609375 7.828125 -1.390625 7.75 -1.34375 C 7.375 -1.125 6.71875 -0.59375 6.203125 -0.59375 C 5.640625 -0.59375 5.578125 -1.15625 5.578125 -1.765625 C 5.578125 -2.375 5.734375 -3.046875 5.8125 -3.34375 C 5.875 -3.6875 6.03125 -4.109375 6.03125 -4.46875 C 6.03125 -4.828125 5.484375 -5.234375 5.1875 -5.234375 C 4.796875 -5.234375 3.9375 -4.609375 3.5625 -4.234375 C 2.75 -3.4375 2.546875 -3.25 1.84375 -2.53125 C 2.28125 -3.640625 2.703125 -4.953125 2.78125 -5.15625 C 2.859375 -5.484375 2.890625 -5.6875 2.328125 -5.96875 C 1.84375 -6.21875 1.6875 -6.265625 1.515625 -5.609375 C 0.734375 -2.65625 0.15625 -1.125 0.15625 -0.703125 C 0.15625 -0.46875 0.25 -0.34375 0.390625 -0.140625 C 0.578125 0.078125 0.734375 0.15625 0.890625 0.15625 C 1.234375 0.15625 1.515625 -0.25 1.75 -0.578125 C 2.03125 -0.921875 2.65625 -1.59375 3.0625 -1.984375 C 3.171875 -2.078125 4.390625 -3.4375 4.703125 -3.640625 C 4.28125 -2.1875 4.328125 -1.03125 4.65625 -0.53125 C 5 0 5.6875 0.21875 6.09375 0.21875 Z M 6.09375 0.21875 "/></g></g></g><g fill="#03989e" fill-opacity="1"><g transform="translate(146.152956, 57.531761)"><g><path d="M 0.125 7.328125 C 2.703125 7.328125 4.203125 3.921875 4.9375 1.875 C 5.109375 1.421875 5.84375 -1.421875 6.171875 -3.09375 C 6.328125 -3.5625 6.890625 -4.09375 6.890625 -4.5625 C 6.890625 -4.734375 6.828125 -4.90625 6.625 -5.0625 C 6.484375 -5.1875 6.109375 -5.359375 6 -5.3125 C 5.828125 -5.265625 5.65625 -5.1875 5.40625 -4.9375 C 4.953125 -5.40625 4.375 -5.71875 3.859375 -5.71875 C 3.59375 -5.71875 3.328125 -5.625 3.046875 -5.453125 C 2.203125 -4.921875 1.453125 -3.96875 1.015625 -3.078125 C 0.734375 -2.53125 0.34375 -1.671875 0.34375 -0.953125 C 0.34375 -0.78125 0.359375 -0.609375 0.421875 -0.46875 C 0.5625 -0.015625 1.140625 0.4375 1.6875 0.4375 C 2.546875 0.4375 4.265625 -1.625 4.953125 -2.65625 C 4.921875 -2.453125 4.84375 -2.046875 4.796875 -1.859375 C 4.578125 -1.078125 4.421875 -0.328125 4.34375 -0.09375 C 3.6875 2.296875 2.140625 6.1875 0.109375 6.1875 C -1.015625 6.1875 -1.515625 5.265625 -1.875 3.96875 C -2.015625 3.484375 -2.203125 4.421875 -2.203125 4.828125 C -2.203125 6.265625 -1.234375 7.328125 0.125 7.328125 Z M 1.5 -0.71875 C 1.40625 -0.71875 1.375 -0.828125 1.375 -0.90625 C 1.375 -1.484375 2.484375 -2.96875 2.703125 -3.234375 C 2.953125 -3.546875 3.734375 -4.546875 4.28125 -4.546875 C 4.390625 -4.546875 4.59375 -4.453125 4.875 -4.234375 C 4.328125 -3.3125 2.140625 -0.71875 1.5 -0.71875 Z M 1.5 -0.71875 "/></g></g></g><g fill="#03989e" fill-opacity="1"><g transform="translate(153.512497, 57.531761)"><g/></g></g><g fill="#03989e" fill-opacity="1"><g transform="translate(157.888527, 57.531761)"><g><path d="M 5.75 0.21875 C 6.390625 -0.453125 6.84375 -2.75 7.5625 -4.65625 C 8.171875 -4.828125 8.625 -4.84375 9.234375 -4.953125 C 9.46875 -5 9.3125 -5.625 7.8125 -5.6875 C 8.859375 -9.203125 10.046875 -11.3125 10 -11.65625 C 9.984375 -12.03125 9.203125 -12.75 9 -12.25 C 8.734375 -11.640625 8.515625 -11.109375 8.359375 -10.75 C 8.140625 -10.03125 7.875 -9.375 7.578125 -8.6875 C 7.375 -8.171875 7.140625 -7.59375 6.515625 -5.578125 C 5.40625 -5.53125 4.109375 -5.28125 3.546875 -5.21875 C 4.453125 -7.796875 5 -9.25 5.1875 -10.28125 C 5.28125 -10.734375 4.25 -11.765625 4.109375 -11.15625 C 3.890625 -10.296875 3.640625 -9.40625 3.46875 -8.9375 C 3.09375 -7.625 2.84375 -6.765625 2.21875 -5.03125 C 1.796875 -4.875 1.359375 -4.8125 0.9375 -4.609375 C 0.46875 -4.390625 -0.078125 -4.140625 0.3125 -3.53125 C 0.46875 -3.109375 0.578125 -3 0.765625 -3.0625 C 1.015625 -3.109375 1.265625 -3.25 1.671875 -3.421875 C 1.46875 -2.78125 1.03125 -1.734375 0.953125 -1.1875 C 0.875 0.15625 1.84375 0.6875 1.921875 -0.15625 C 1.96875 -1.15625 2.28125 -2.21875 3.0625 -3.828125 C 3.890625 -4.078125 5.515625 -4.34375 6.1875 -4.390625 C 5.75 -3.21875 5.625 -2.375 5.0625 -0.46875 C 4.90625 0.15625 5.46875 0.546875 5.75 0.21875 Z M 5.75 0.21875 "/></g></g></g><g fill="#03989e" fill-opacity="1"><g transform="translate(167.363644, 57.531761)"><g><path d="M 2.4375 0.265625 C 3.421875 0.265625 4.59375 -0.359375 5.21875 -1.078125 C 5.734375 -1.703125 5.734375 -2.328125 5.625 -2.21875 C 4.453125 -1.046875 3.171875 -0.640625 2.265625 -0.640625 C 1.921875 -0.640625 1.640625 -0.703125 1.5 -0.875 C 1.21875 -1.1875 1.234375 -1.71875 1.390625 -2.265625 C 1.703125 -2.0625 2.140625 -1.953125 2.453125 -1.953125 C 2.546875 -1.953125 2.625 -1.953125 2.703125 -1.96875 C 3.640625 -2.171875 4.265625 -2.984375 4.5 -3.75 C 4.609375 -4.046875 4.65625 -4.34375 4.65625 -4.59375 C 4.65625 -4.703125 4.65625 -4.796875 4.625 -4.90625 C 4.578125 -5.21875 4.46875 -5.40625 4.171875 -5.578125 C 4 -5.6875 3.796875 -5.734375 3.59375 -5.734375 C 2.3125 -5.734375 0.1875 -3.875 0.1875 -1.875 C 0.1875 -1.296875 0.234375 -0.828125 0.828125 -0.328125 C 1.234375 0 1.859375 0.265625 2.4375 0.265625 Z M 1.8125 -3.015625 C 2.3125 -3.9375 3.671875 -5.015625 3.796875 -4.78125 C 3.9375 -4.53125 2.875 -3.453125 2.703125 -3.328125 C 2.484375 -3.125 2.140625 -2.859375 1.8125 -3.015625 Z M 1.8125 -3.015625 "/></g></g></g><g fill="#03989e" fill-opacity="1"><g transform="translate(172.625681, 57.531761)"><g><path d="M 5.5625 0.375 C 6.796875 0.25 8.140625 -2.21875 7.59375 -1.796875 C 7.34375 -1.671875 6.171875 -0.609375 5.265625 -0.546875 C 4.796875 -0.5 4.671875 -0.8125 4.671875 -1.21875 C 4.671875 -2.21875 5.34375 -3.890625 5.828125 -4.78125 C 5.953125 -5.015625 5.765625 -5.28125 5.421875 -5.453125 C 5.25 -5.5625 4.796875 -5.796875 4.578125 -5.453125 C 3.578125 -6.140625 2.3125 -5.453125 1.453125 -4.484375 C -0.03125 -2.890625 -1.046875 -0.296875 0.90625 -0.078125 C 1.53125 -0.015625 2.4375 -0.453125 3.578125 -1.6875 C 3.6875 -0.328125 4.5 0.484375 5.5625 0.375 Z M 0.984375 -1.28125 C 1.71875 -3.171875 3.515625 -4.921875 4.015625 -4.453125 C 4.015625 -3.4375 0.609375 -0.109375 0.984375 -1.28125 Z M 0.984375 -1.28125 "/></g></g></g><g fill="#03989e" fill-opacity="1"><g transform="translate(179.840564, 57.531761)"><g><path d="M 2.90625 0.390625 C 3.65625 0.390625 4.453125 -0.1875 4.90625 -0.640625 C 5.234375 -0.953125 5.515625 -1.625 5.46875 -1.828125 C 5.390625 -2.078125 5.265625 -1.828125 4.671875 -1.328125 C 4.234375 -0.9375 3.421875 -0.4375 2.703125 -0.4375 C 1.734375 -0.4375 1.703125 -1.359375 1.703125 -1.6875 C 2.796875 -2.453125 3.859375 -4.125 4.234375 -4.703125 C 4.9375 -5.75 5.515625 -6.875 6 -8.03125 C 6.390625 -8.9375 6.546875 -9.875 6.53125 -10.734375 C 6.515625 -11.421875 5.71875 -11.796875 5.125 -11.796875 C 5.015625 -11.796875 4.90625 -11.796875 4.8125 -11.765625 C 4.234375 -11.5625 3.984375 -11.203125 3.671875 -10.75 C 3.078125 -9.875 2.703125 -9.203125 2.25 -8.21875 C 1.84375 -7.34375 1.46875 -6.390625 1.1875 -5.5 C 0.875 -4.453125 0.53125 -3.234375 0.53125 -2.1875 C 0.53125 -1.28125 0.609375 -0.4375 1.375 0.015625 C 1.921875 0.34375 2.53125 0.390625 2.90625 0.390625 Z M 1.75 -2.9375 C 1.96875 -3.90625 2.296875 -4.828125 2.625 -5.59375 C 3.453125 -7.59375 5.0625 -10.796875 5.5 -10.796875 C 5.578125 -10.796875 5.609375 -10.734375 5.609375 -10.5625 C 5.609375 -10.515625 5.609375 -10.4375 5.59375 -10.375 C 5.421875 -8.953125 4.734375 -7.71875 4.21875 -6.59375 C 3.890625 -5.875 3.40625 -5.078125 2.953125 -4.453125 C 2.65625 -4.03125 2.296875 -3.546875 1.75 -2.9375 Z M 1.75 -2.9375 "/></g></g></g><g fill="#03989e" fill-opacity="1"><g transform="translate(185.229175, 57.531761)"><g><path d="M 0.875 0.21875 C 1.0625 0.234375 1.265625 0.140625 1.296875 -0.015625 C 1.296875 -0.15625 1.25 -0.328125 1.265625 -0.5 C 1.296875 -1.015625 1.484375 -1.578125 1.578125 -2.015625 C 1.796875 -2.71875 2.203125 -3.90625 2.359375 -4.15625 C 2.828125 -4.25 3.296875 -4.3125 3.8125 -4.390625 C 4.734375 -4.5625 5.9375 -5.484375 5.265625 -5.484375 C 4.765625 -5.484375 4.390625 -5.421875 3.828125 -5.40625 C 3.453125 -5.390625 3.171875 -5.34375 2.796875 -5.34375 C 3.078125 -6.03125 3.359375 -6.734375 3.515625 -7.03125 C 3.765625 -7.640625 4.234375 -8.703125 4.46875 -9.296875 C 4.5625 -9.546875 4.109375 -10.078125 3.6875 -10.078125 C 3.640625 -10.078125 3.578125 -10.0625 3.53125 -10.046875 C 3.328125 -9.953125 2.96875 -9.125 2.828125 -8.734375 L 2.015625 -6.828125 C 1.703125 -6.078125 1.625 -5.859375 1.390625 -5.28125 C 0.46875 -5.109375 0.15625 -5.265625 0.15625 -4.546875 C 0.15625 -4.25 0.234375 -4.109375 0.5625 -4.109375 C 0.703125 -4.109375 0.90625 -4.140625 1 -4.125 C 0.578125 -3.09375 0.21875 -1.75 0.15625 -0.890625 C 0.140625 -0.609375 0.15625 -0.375 0.25 -0.234375 C 0.390625 0.078125 0.65625 0.203125 0.875 0.21875 Z M 0.875 0.21875 "/></g></g></g><g fill="#03989e" fill-opacity="1"><g transform="translate(189.804104, 57.531761)"><g><path d="M 6.265625 0.21875 C 6.390625 0.21875 6.515625 0.21875 6.625 0.1875 C 7.8125 -0.109375 8.9375 -2.3125 8.703125 -2.3125 C 8.6875 -2.3125 8.625 -2.28125 8.5625 -2.203125 C 8.359375 -2.046875 7.4375 -0.953125 6.609375 -0.765625 C 6.53125 -0.734375 6.453125 -0.734375 6.40625 -0.734375 C 6.078125 -0.734375 5.96875 -0.984375 5.96875 -1.390625 C 5.96875 -2.328125 6.421875 -3.546875 6.375 -4.265625 C 6.328125 -4.78125 5.625 -5.59375 5.15625 -5.59375 C 4.25 -5.59375 2.9375 -4.09375 1.953125 -2.515625 C 1.953125 -3.578125 4.203125 -9.28125 5.03125 -10.734375 C 5.171875 -11 5.40625 -11.4375 5.40625 -11.796875 C 5.40625 -12.09375 5.078125 -12.375 4.65625 -12.375 C 3.984375 -12.375 2.421875 -8.15625 1.578125 -5.921875 C 0.6875 -3.5625 0.234375 -1.84375 0.234375 -0.828125 C 0.234375 -0.4375 0.578125 0 1.234375 0 C 1.28125 0 1.359375 0 1.40625 -0.015625 C 1.796875 -0.09375 1.96875 -0.46875 2.28125 -0.953125 C 3.390625 -2.734375 3.734375 -3.140625 4.96875 -4.34375 C 4.78125 -3.140625 4.59375 -2.21875 4.59375 -1.515625 C 4.59375 -0.390625 5.453125 0.21875 6.265625 0.21875 Z M 6.265625 0.21875 "/></g></g></g><g fill="#03989e" fill-opacity="1"><g transform="translate(197.868837, 57.531761)"><g><path d="M 2.25 0.265625 C 2.78125 0.265625 3.328125 0.125 3.6875 -0.109375 C 4.125 -0.390625 4.53125 -0.65625 4.828125 -1.015625 C 5.1875 -1.421875 5.3125 -1.84375 5.3125 -2.03125 C 5.3125 -2.109375 5.296875 -2.171875 5.25 -2.15625 C 4.3125 -1.5 2.96875 -0.640625 1.875 -0.640625 C 1.71875 -0.640625 1.5 -0.65625 1.34375 -0.84375 C 1.234375 -1 1.171875 -1.171875 1.171875 -1.375 C 1.171875 -2.015625 1.609375 -2.71875 2.015625 -3.25 C 2.25 -3.578125 2.53125 -4.046875 2.875 -4.265625 C 3.0625 -4.375 3.140625 -4.421875 3.21875 -4.421875 C 3.34375 -4.421875 3.40625 -4.265625 3.703125 -4.21875 C 3.796875 -4.203125 3.890625 -4.171875 3.96875 -4.171875 C 4.21875 -4.171875 4.328125 -4.328125 4.328125 -4.5 C 4.328125 -4.78125 4.09375 -5.1875 3.859375 -5.40625 C 3.5625 -5.65625 3.28125 -5.765625 3 -5.765625 C 2.546875 -5.765625 2.140625 -5.484375 1.734375 -5.125 C 1 -4.4375 0.109375 -3.109375 0.109375 -1.8125 C 0.109375 -1.25 0.296875 -0.703125 0.71875 -0.25 C 1.078125 0.109375 1.671875 0.265625 2.25 0.265625 Z M 2.25 0.265625 "/></g></g></g><g fill="#03989e" fill-opacity="1"><g transform="translate(202.78732, 57.531761)"><g><path d="M 5.5625 0.375 C 6.796875 0.25 8.140625 -2.21875 7.59375 -1.796875 C 7.34375 -1.671875 6.171875 -0.609375 5.265625 -0.546875 C 4.796875 -0.5 4.671875 -0.8125 4.671875 -1.21875 C 4.671875 -2.21875 5.34375 -3.890625 5.828125 -4.78125 C 5.953125 -5.015625 5.765625 -5.28125 5.421875 -5.453125 C 5.25 -5.5625 4.796875 -5.796875 4.578125 -5.453125 C 3.578125 -6.140625 2.3125 -5.453125 1.453125 -4.484375 C -0.03125 -2.890625 -1.046875 -0.296875 0.90625 -0.078125 C 1.53125 -0.015625 2.4375 -0.453125 3.578125 -1.6875 C 3.6875 -0.328125 4.5 0.484375 5.5625 0.375 Z M 0.984375 -1.28125 C 1.71875 -3.171875 3.515625 -4.921875 4.015625 -4.453125 C 4.015625 -3.4375 0.609375 -0.109375 0.984375 -1.28125 Z M 0.984375 -1.28125 "/></g></g></g><g fill="#03989e" fill-opacity="1"><g transform="translate(210.002198, 57.531761)"><g><path d="M 1.21875 0.234375 C 1.40625 0.234375 1.75 -0.5625 1.921875 -0.984375 C 2.09375 -1.40625 2.375 -1.9375 2.609375 -2.390625 C 2.875 -2.90625 3.671875 -3.90625 4.109375 -4.171875 C 4.4375 -3.421875 4.734375 -3.078125 5.359375 -3.078125 C 5.640625 -3.078125 6.046875 -3.546875 5.921875 -3.640625 C 5.453125 -4.03125 5.28125 -4.3125 5.0625 -4.953125 C 4.890625 -5.515625 4.375 -5.703125 4 -5.375 C 3.34375 -4.8125 2.640625 -3.984375 2.171875 -3.09375 C 2.53125 -4.03125 2.765625 -4.765625 2.828125 -5.109375 C 2.859375 -5.390625 2.859375 -5.578125 2.046875 -5.875 C 1.8125 -5.96875 1.453125 -5.734375 0.6875 -2.453125 C 0.578125 -1.984375 0.203125 -0.65625 0.203125 -0.328125 C 0.203125 -0.015625 0.328125 0.234375 1.21875 0.234375 Z M 1.21875 0.234375 "/></g></g></g><g fill="#03989e" fill-opacity="1"><g transform="translate(215.8971, 57.531761)"><g><path d="M 2.4375 0.265625 C 3.421875 0.265625 4.59375 -0.359375 5.21875 -1.078125 C 5.734375 -1.703125 5.734375 -2.328125 5.625 -2.21875 C 4.453125 -1.046875 3.171875 -0.640625 2.265625 -0.640625 C 1.921875 -0.640625 1.640625 -0.703125 1.5 -0.875 C 1.21875 -1.1875 1.234375 -1.71875 1.390625 -2.265625 C 1.703125 -2.0625 2.140625 -1.953125 2.453125 -1.953125 C 2.546875 -1.953125 2.625 -1.953125 2.703125 -1.96875 C 3.640625 -2.171875 4.265625 -2.984375 4.5 -3.75 C 4.609375 -4.046875 4.65625 -4.34375 4.65625 -4.59375 C 4.65625 -4.703125 4.65625 -4.796875 4.625 -4.90625 C 4.578125 -5.21875 4.46875 -5.40625 4.171875 -5.578125 C 4 -5.6875 3.796875 -5.734375 3.59375 -5.734375 C 2.3125 -5.734375 0.1875 -3.875 0.1875 -1.875 C 0.1875 -1.296875 0.234375 -0.828125 0.828125 -0.328125 C 1.234375 0 1.859375 0.265625 2.4375 0.265625 Z M 1.8125 -3.015625 C 2.3125 -3.9375 3.671875 -5.015625 3.796875 -4.78125 C 3.9375 -4.53125 2.875 -3.453125 2.703125 -3.328125 C 2.484375 -3.125 2.140625 -2.859375 1.8125 -3.015625 Z M 1.8125 -3.015625 "/></g></g></g><g fill="#03989e" fill-opacity="1"><g transform="translate(221.159131, 57.531761)"><g/></g></g><g fill="#03989e" fill-opacity="1"><g transform="translate(225.535156, 57.531761)"><g><path d="M 2.328125 1.046875 C 2.984375 1.046875 3.875 0.390625 5.109375 -0.34375 C 5.96875 -0.953125 6.34375 -1.421875 6.34375 -1.40625 C 6.34375 -1.953125 5.96875 -1.46875 5.59375 -1.34375 C 4.796875 -1.046875 4.109375 -0.71875 3.6875 -0.5625 C 3.0625 -0.3125 2.390625 -0.125 2.046875 -0.125 C 1.90625 -0.125 1.765625 -0.1875 1.703125 -0.3125 C 1.53125 -0.609375 1.828125 -1.453125 1.921875 -1.734375 C 2.71875 -4.46875 3.5625 -6.625 4.265625 -9.078125 C 4.421875 -9.53125 4.671875 -10.21875 4.5625 -10.71875 C 4.453125 -11.15625 3.984375 -11.84375 3.453125 -11.453125 C 3 -11.125 3.203125 -10.09375 3.109375 -9.65625 C 2.9375 -8.859375 2.609375 -8.046875 2.328125 -7.296875 C 1.90625 -5.984375 1.453125 -4.6875 1.0625 -3.359375 C 0.671875 -1.96875 -0.09375 0.125 1.21875 0.796875 C 1.53125 0.953125 1.90625 1.046875 2.328125 1.046875 Z M 2.328125 1.046875 "/></g></g></g><g fill="#03989e" fill-opacity="1"><g transform="translate(231.393895, 57.531761)"><g><path d="M 1.984375 0 C 2.828125 0 3.546875 -0.78125 4.125 -1.421875 C 4.609375 -1.984375 5.140625 -2.484375 5.25 -3.28125 C 5.265625 -3.359375 5.265625 -3.4375 5.265625 -3.53125 C 5.265625 -4.3125 4.625 -4.46875 4.046875 -4.953125 C 3.859375 -5.125 3.828125 -5.15625 3.828125 -5.21875 L 3.828125 -5.25 C 3.828125 -5.296875 3.8125 -5.390625 3.734375 -5.59375 C 3.59375 -5.828125 3.109375 -6.203125 2.84375 -6.1875 C 2.203125 -6.09375 1.390625 -4.34375 1.109375 -3.828125 C 0.796875 -3.296875 0.421875 -2.328125 0.421875 -1.515625 C 0.421875 -0.921875 0.640625 -0.390625 1.28125 -0.1875 C 1.515625 -0.046875 1.75 0 1.984375 0 Z M 1.6875 -1.046875 C 1.59375 -1.046875 1.53125 -1.125 1.53125 -1.265625 C 1.53125 -1.421875 1.640625 -1.796875 1.75 -2.078125 C 1.9375 -2.5625 2.296875 -3.671875 2.984375 -4.078125 C 3.296875 -4.25 4.078125 -3.984375 4.078125 -4 C 4.140625 -3.921875 4.171875 -3.859375 4.171875 -3.765625 C 4.171875 -3.1875 2.1875 -1.046875 1.6875 -1.046875 Z M 1.6875 -1.046875 "/></g></g></g><g fill="#03989e" fill-opacity="1"><g transform="translate(237.089897, 57.531761)"><g><path d="M 2.25 0.265625 C 2.78125 0.265625 3.328125 0.125 3.6875 -0.109375 C 4.125 -0.390625 4.53125 -0.65625 4.828125 -1.015625 C 5.1875 -1.421875 5.3125 -1.84375 5.3125 -2.03125 C 5.3125 -2.109375 5.296875 -2.171875 5.25 -2.15625 C 4.3125 -1.5 2.96875 -0.640625 1.875 -0.640625 C 1.71875 -0.640625 1.5 -0.65625 1.34375 -0.84375 C 1.234375 -1 1.171875 -1.171875 1.171875 -1.375 C 1.171875 -2.015625 1.609375 -2.71875 2.015625 -3.25 C 2.25 -3.578125 2.53125 -4.046875 2.875 -4.265625 C 3.0625 -4.375 3.140625 -4.421875 3.21875 -4.421875 C 3.34375 -4.421875 3.40625 -4.265625 3.703125 -4.21875 C 3.796875 -4.203125 3.890625 -4.171875 3.96875 -4.171875 C 4.21875 -4.171875 4.328125 -4.328125 4.328125 -4.5 C 4.328125 -4.78125 4.09375 -5.1875 3.859375 -5.40625 C 3.5625 -5.65625 3.28125 -5.765625 3 -5.765625 C 2.546875 -5.765625 2.140625 -5.484375 1.734375 -5.125 C 1 -4.4375 0.109375 -3.109375 0.109375 -1.8125 C 0.109375 -1.25 0.296875 -0.703125 0.71875 -0.25 C 1.078125 0.109375 1.671875 0.265625 2.25 0.265625 Z M 2.25 0.265625 "/></g></g></g><g fill="#03989e" fill-opacity="1"><g transform="translate(242.00838, 57.531761)"><g><path d="M 5.5625 0.375 C 6.796875 0.25 8.140625 -2.21875 7.59375 -1.796875 C 7.34375 -1.671875 6.171875 -0.609375 5.265625 -0.546875 C 4.796875 -0.5 4.671875 -0.8125 4.671875 -1.21875 C 4.671875 -2.21875 5.34375 -3.890625 5.828125 -4.78125 C 5.953125 -5.015625 5.765625 -5.28125 5.421875 -5.453125 C 5.25 -5.5625 4.796875 -5.796875 4.578125 -5.453125 C 3.578125 -6.140625 2.3125 -5.453125 1.453125 -4.484375 C -0.03125 -2.890625 -1.046875 -0.296875 0.90625 -0.078125 C 1.53125 -0.015625 2.4375 -0.453125 3.578125 -1.6875 C 3.6875 -0.328125 4.5 0.484375 5.5625 0.375 Z M 0.984375 -1.28125 C 1.71875 -3.171875 3.515625 -4.921875 4.015625 -4.453125 C 4.015625 -3.4375 0.609375 -0.109375 0.984375 -1.28125 Z M 0.984375 -1.28125 "/></g></g></g><g fill="#03989e" fill-opacity="1"><g transform="translate(249.223258, 57.531761)"><g><path d="M 2.90625 0.390625 C 3.65625 0.390625 4.453125 -0.1875 4.90625 -0.640625 C 5.234375 -0.953125 5.515625 -1.625 5.46875 -1.828125 C 5.390625 -2.078125 5.265625 -1.828125 4.671875 -1.328125 C 4.234375 -0.9375 3.421875 -0.4375 2.703125 -0.4375 C 1.734375 -0.4375 1.703125 -1.359375 1.703125 -1.6875 C 2.796875 -2.453125 3.859375 -4.125 4.234375 -4.703125 C 4.9375 -5.75 5.515625 -6.875 6 -8.03125 C 6.390625 -8.9375 6.546875 -9.875 6.53125 -10.734375 C 6.515625 -11.421875 5.71875 -11.796875 5.125 -11.796875 C 5.015625 -11.796875 4.90625 -11.796875 4.8125 -11.765625 C 4.234375 -11.5625 3.984375 -11.203125 3.671875 -10.75 C 3.078125 -9.875 2.703125 -9.203125 2.25 -8.21875 C 1.84375 -7.34375 1.46875 -6.390625 1.1875 -5.5 C 0.875 -4.453125 0.53125 -3.234375 0.53125 -2.1875 C 0.53125 -1.28125 0.609375 -0.4375 1.375 0.015625 C 1.921875 0.34375 2.53125 0.390625 2.90625 0.390625 Z M 1.75 -2.9375 C 1.96875 -3.90625 2.296875 -4.828125 2.625 -5.59375 C 3.453125 -7.59375 5.0625 -10.796875 5.5 -10.796875 C 5.578125 -10.796875 5.609375 -10.734375 5.609375 -10.5625 C 5.609375 -10.515625 5.609375 -10.4375 5.59375 -10.375 C 5.421875 -8.953125 4.734375 -7.71875 4.21875 -6.59375 C 3.890625 -5.875 3.40625 -5.078125 2.953125 -4.453125 C 2.65625 -4.03125 2.296875 -3.546875 1.75 -2.9375 Z M 1.75 -2.9375 "/></g></g></g></svg>