<svg id="Layer_1" data-name="Layer 1" xmlns="http://www.w3.org/2000/svg" xmlns:xlink="http://www.w3.org/1999/xlink" viewBox="0 0 265.75 57.98"><defs><style>.cls-1{fill:none;}.cls-2{clip-path:url(#clip-path);}.cls-3{fill:#c448d6;}.cls-4{clip-path:url(#clip-path-2);}.cls-5{fill:#03989e;}.cls-6{clip-path:url(#clip-path-3);}.cls-7{fill:#f63aa9;}</style><clipPath id="clip-path" transform="translate(-4.29 -5.53)"><rect class="cls-1" x="10.9" y="4.86" width="36" height="48.21"/></clipPath><clipPath id="clip-path-2" transform="translate(-4.29 -5.53)"><rect class="cls-1" x="3.9" y="4.86" width="22" height="48.21"/></clipPath><clipPath id="clip-path-3" transform="translate(-4.29 -5.53)"><rect class="cls-1" x="20.9" y="9.86" width="30" height="43.21"/></clipPath></defs><g class="cls-2"><path class="cls-3" d="M44.86,10.93s-6.31-5.33-14.7,3.41a2.51,2.51,0,0,0-2.37-1.7,2.47,2.47,0,0,0-1.72.69C21.1,2.82,13.25,6,13.25,6L11.53,8s20.24.47,9.61,34.45a45.4,45.4,0,0,1,.7,10.54s1.54-5.85,2.67-7.66A20.14,20.14,0,0,1,26,43C27.24,8.42,46,13.8,46,13.8l-1.16-2.87" transform="translate(-4.29 -5.53)"/><path class="cls-3" d="M16,5.53A8,8,0,0,0,13.25,6L11.53,8s20.24.47,9.61,34.45a45.4,45.4,0,0,1,.7,10.54s1.54-5.85,2.67-7.66A20.14,20.14,0,0,1,26,43C27,16.63,38.1,13.5,43.34,13.5a10.71,10.71,0,0,1,2.68.3l-1.16-2.87a8.26,8.26,0,0,0-5-1.61c-2.55,0-5.91,1.08-9.69,5a2.51,2.51,0,0,0-2.37-1.7,2.47,2.47,0,0,0-1.72.69C23,6.77,18.74,5.53,16,5.53Zm0,0v.12a8.93,8.93,0,0,1,4.83,1.41A14.55,14.55,0,0,1,26,13.38a.12.12,0,0,0,.08.06h0a.11.11,0,0,0,.08,0,2.39,2.39,0,0,1,3.91,1,.11.11,0,0,0,.08.07h0a.11.11,0,0,0,.08,0c3.18-3.31,6.41-5,9.61-5A8.23,8.23,0,0,1,44.76,11l1.08,2.64a12.33,12.33,0,0,0-2.5-.25A13.44,13.44,0,0,0,33,18.29C28.7,23.2,26.33,31.51,25.92,43a21.34,21.34,0,0,0-1.5,2.24A36,36,0,0,0,22,51.82a49.14,49.14,0,0,0-.78-9.41c2.28-7.3,3.31-13.62,3.05-18.78a19.19,19.19,0,0,0-3.19-10.36,13,13,0,0,0-6.21-4.7,12.16,12.16,0,0,0-3.14-.71l1.56-1.79A8.33,8.33,0,0,1,16,5.65V5.53" transform="translate(-4.29 -5.53)"/></g><g class="cls-4"><path class="cls-5" d="M24.39,37.41l.69-3.91a15.28,15.28,0,0,0-11.24-8.11l-.16-.1a2.79,2.79,0,1,0-2.91-3,2.62,2.62,0,0,0,0,.28C8.15,19.3,5.94,13.41,13.62,5.71c0,0-8.6,1.37-9.3,9.41s10.57,13.76,17.52,38c0,0,.71-5.53-.39-9.6C18.7,33.3,15.24,29.18,15.24,29.18s4.08.07,9.15,8.23" transform="translate(-4.29 -5.53)"/><path class="cls-5" d="M13.62,5.71S5,7.08,4.32,15.12s10.57,13.76,17.52,38c0,0,.71-5.53-.39-9.6C18.7,33.3,15.24,29.18,15.24,29.18s4.08.07,9.15,8.23l.69-3.91a15.28,15.28,0,0,0-11.24-8.11l-.16-.1a2.79,2.79,0,0,0,.1-5.56h-.24a2.78,2.78,0,0,0-2.77,2.55,2.62,2.62,0,0,0,0,.28C8.15,19.3,5.94,13.41,13.62,5.71Zm-.33.18C6,13.34,7.85,19.09,10.67,22.62a.1.1,0,0,0,.09,0h0a.12.12,0,0,0,.08-.11,2.53,2.53,0,0,1,0-.28,2.67,2.67,0,0,1,2.66-2.44h.24a2.68,2.68,0,0,1-.1,5.34.1.1,0,0,0-.1.08.1.1,0,0,0,0,.12l.16.11h0a14.56,14.56,0,0,1,8.56,4.42A15.27,15.27,0,0,1,25,33.52l-.64,3.58c-2.57-4.06-4.87-6-6.36-7a5.93,5.93,0,0,0-2.72-1.07h0a.11.11,0,0,0-.1.06.13.13,0,0,0,0,.12s3.48,4.22,6.18,14.24a28.66,28.66,0,0,1,.45,9A87.65,87.65,0,0,0,9.22,26.34c-3.07-4.6-5.1-7.65-4.79-11.21a9.57,9.57,0,0,1,1.73-4.81A10.44,10.44,0,0,1,9.29,7.5a13.86,13.86,0,0,1,4-1.61" transform="translate(-4.29 -5.53)"/></g><g class="cls-6"><path class="cls-7" d="M24.39,37.41l.56-4A15.33,15.33,0,0,1,38.2,29.33l.18,0a2.78,2.78,0,1,1,3.72-1.95,2.29,2.29,0,0,1-.08.28c3.51-2.26,7.47-7.14,2.63-16.88,0,0,7.72,4,5.83,11.87S36.09,32.31,21.81,53c0,0,1.09-5.47,3.43-9,5.83-8.77,10.42-11.58,10.42-11.58s-3.87-1.19-11.27,4.93" transform="translate(-4.29 -5.53)"/><path class="cls-7" d="M44.65,10.74c4.84,9.74.88,14.62-2.63,16.88a2.29,2.29,0,0,0,.08-.28A2.77,2.77,0,0,0,40,24a2.36,2.36,0,0,0-.65-.08,2.79,2.79,0,0,0-1,5.38l-.18,0a14.42,14.42,0,0,0-2.71-.26A15.6,15.6,0,0,0,25,33.45l-.56,4c5.33-4.41,8.83-5,10.37-5a3.14,3.14,0,0,1,.9.1s-4.59,2.81-10.42,11.58c-2.34,3.51-3.43,9-3.43,9C36.09,32.31,48.6,30.46,50.48,22.61S44.65,10.74,44.65,10.74Zm.26.28a13.66,13.66,0,0,1,3.29,2.8,10.45,10.45,0,0,1,2.06,3.67,9.57,9.57,0,0,1,.12,5.1c-.84,3.48-3.73,5.72-8.11,9.11A87.79,87.79,0,0,0,22,52.51a28.8,28.8,0,0,1,3.29-8.4c5.75-8.63,10.34-11.51,10.39-11.54a.1.1,0,0,0,.05-.11.09.09,0,0,0-.08-.09,3.53,3.53,0,0,0-.93-.1c-1.59,0-5,.64-10.22,4.87l.52-3.64a14.79,14.79,0,0,1,2.82-2.14,15,15,0,0,1,7.61-2.17,14.3,14.3,0,0,1,2.68.25h0l.19-.05a.11.11,0,0,0,.08-.1.12.12,0,0,0-.07-.11A2.67,2.67,0,1,1,42,27.32c0,.09-.05.17-.07.26a.11.11,0,0,0,0,.13l.07,0,.06,0c3.8-2.45,7.35-7.33,2.83-16.69" transform="translate(-4.29 -5.53)"/></g><path d="M55.4,31.19h3.72V23.35h5.64c4.77,0,8-2.75,8-6.77s-3.24-6.79-8-6.79H55.4Zm3.72-10.83V12.78H64.4c2.78,0,4.65,1.57,4.65,3.8s-1.9,3.78-4.65,3.78Z" transform="translate(-4.29 -5.53)"/><path d="M74.76,31.19h3.41V22.62a4.21,4.21,0,0,1,4.34-4.44c2,0,3.32,1.39,3.32,3.6v9.41h3.41V21c0-3.53-2-5.64-5.37-5.64a6.31,6.31,0,0,0-5.67,3.05h0V8.89H74.76Z" transform="translate(-4.29 -5.53)"/><path d="M96.73,31.74a6.32,6.32,0,0,0,5.77-3.14h0l.06.63a2.85,2.85,0,0,0,3,2.51,4.78,4.78,0,0,0,3.5-1.51L107.9,28.3a1.7,1.7,0,0,1-1.21.81c-.51,0-.81-.42-.81-1.06V21.14c0-3.62-2.84-5.91-7-5.91s-7.16,2.35-7.43,5.19l3.23.78c.12-1.69,1.81-3.26,4.22-3.26,2.18,0,3.66,1.06,3.66,2.69,0,.63-.48,1.06-1.21,1.15l-3.41.39c-4.8.57-6.88,2.5-6.88,5C91,29.92,93.38,31.74,96.73,31.74Zm1-2.63c-1.93,0-3.35-.85-3.35-2.17s1-2.21,4.16-2.57l3.9-.45v.84C102.47,27.33,100.48,29.11,97.76,29.11Z" transform="translate(-4.29 -5.53)"/><path d="M118.07,15.28a4.76,4.76,0,0,0-4.37,3h0l-.45-2.47h-2.78V31.19h3.41V22.8c0-3,1.3-4.74,3.41-4.74,1.51,0,2.51,1.12,2.69,3.14l2.89-.84C122.51,17.13,120.7,15.28,118.07,15.28Z" transform="translate(-4.29 -5.53)"/><path d="M124.75,31.19h3.41V22.71c0-2.63,1.42-4.44,3.86-4.44a2.9,2.9,0,0,1,3.11,3.23v9.69h3.38V22.71c0-2.63,1.45-4.44,3.87-4.44a2.91,2.91,0,0,1,3.11,3.23v9.69h3.41V21c0-3.56-1.91-5.64-5.07-5.64a6.28,6.28,0,0,0-5.68,3.23h0a4.59,4.59,0,0,0-4.74-3.23A5.64,5.64,0,0,0,128,18.37h0l-.45-2.54h-2.8Z" transform="translate(-4.29 -5.53)"/><path d="M156.38,31.74a6.32,6.32,0,0,0,5.77-3.14h0l.06.63a2.85,2.85,0,0,0,3,2.51,4.78,4.78,0,0,0,3.5-1.51l-1.18-1.93a1.68,1.68,0,0,1-1.21.81c-.51,0-.81-.42-.81-1.06V21.14c0-3.62-2.84-5.91-7-5.91s-7.16,2.35-7.43,5.19l3.23.78c.12-1.69,1.81-3.26,4.22-3.26,2.18,0,3.66,1.06,3.66,2.69,0,.63-.48,1.06-1.21,1.15l-3.41.39c-4.8.57-6.88,2.5-6.88,5C150.68,29.92,153,31.74,156.38,31.74Zm1-2.63c-1.93,0-3.35-.85-3.35-2.17s1-2.21,4.16-2.57l3.9-.45v.84C162.12,27.33,160.13,29.11,157.41,29.11Z" transform="translate(-4.29 -5.53)"/><path d="M178,31.19h3.74V21.65h10.35v9.54h3.78V9.79h-3.78v8.72H181.71V9.79H178Z" transform="translate(-4.29 -5.53)"/><path d="M207.22,31.8c3.35,0,6.25-1.57,7.33-3.84l-2.26-1.38a5.9,5.9,0,0,1-5,2.53,5.12,5.12,0,0,1-5.4-4.59H214a5.89,5.89,0,0,0,.12-1.29c0-4.68-3.08-8-7.73-8a7.77,7.77,0,0,0-8.06,8.17C198.37,28.3,202.06,31.8,207.22,31.8Zm-5.31-9.6a4.57,4.57,0,0,1,4.52-4.29c2.36,0,4,1.57,4.23,4.29Z" transform="translate(-4.29 -5.53)"/><path d="M221.47,31.74a6.3,6.3,0,0,0,5.76-3.14h0l.06.63a2.85,2.85,0,0,0,3,2.51,4.77,4.77,0,0,0,3.5-1.51l-1.17-1.93a1.72,1.72,0,0,1-1.21.81c-.51,0-.82-.42-.82-1.06V21.14c0-3.62-2.83-5.91-7-5.91s-7.15,2.35-7.42,5.19l3.22.78c.12-1.69,1.81-3.26,4.23-3.26,2.17,0,3.65,1.06,3.65,2.69,0,.63-.48,1.06-1.21,1.15l-3.41.39c-4.8.57-6.88,2.5-6.88,5C215.76,29.92,218.12,31.74,221.47,31.74Zm1-2.63c-1.93,0-3.35-.85-3.35-2.17s1-2.21,4.17-2.57l3.89-.45v.84C227.2,27.33,225.21,29.11,222.49,29.11Z" transform="translate(-4.29 -5.53)"/><path d="M235.17,31.19h3.41V8.89h-3.41Z" transform="translate(-4.29 -5.53)"/><path d="M248.52,31.8A5.66,5.66,0,0,0,254,28.21l-1.66-1.79a3.3,3.3,0,0,1-3.2,2.57,2.59,2.59,0,0,1-2.57-2.84l0-7.64H253V15.83h-6.52l0-5.13-3.41.75v4.38H240v2.68h3.14V26.6C243.14,29.74,245.25,31.8,248.52,31.8Z" transform="translate(-4.29 -5.53)"/><path d="M255.55,31.19H259V22.62a4.21,4.21,0,0,1,4.35-4.44c2,0,3.32,1.39,3.32,3.6v9.41H270V21c0-3.53-2-5.64-5.37-5.64A6.33,6.33,0,0,0,259,18.37h0V8.89h-3.41Z" transform="translate(-4.29 -5.53)"/><path class="cls-5" d="M128.66,56.5c.58-.14,2.4-.86,2.5-2.11,0-.23-.71.3-1.17.48a5.39,5.39,0,0,1-2,.52,1.32,1.32,0,0,1-1.37-1c-.1-.44.18-1.29.76-3.23a16.46,16.46,0,0,1,1.62-.34c2.54-.48,3.77-1.53,2.82-1.53-1.63,0-2.58,0-3.83.1.12-.57,1.29-3.52,1.78-4.93a16.69,16.69,0,0,1,4-.3,2,2,0,0,1,.81.22c.48,0-.1-.76-.2-.85-.61-.68-2.69-1-3.78-.8a3,3,0,0,0-1.06.26,1.25,1.25,0,0,0-.73-.3c-.51,0-.77.42-1,.89-.08.22-.28.48-.2.7s.34.18.38.45a25.05,25.05,0,0,1-.81,2.38c0,.1-.87,2.36-.81,2.48-.7.1-1.19.26-1.51.28s-.18.63,0,.83a5.23,5.23,0,0,0,.87.62c-.2.75-.51,1.52-.69,2.27C124.62,55.7,126.86,57,128.66,56.5Z" transform="translate(-4.29 -5.53)"/><path class="cls-5" d="M139.32,55.72a2,2,0,0,0,.51-.06,2.93,2.93,0,0,0,1.51-1c.46-.45.69-1.15.52-1.07a5.44,5.44,0,0,0-.74.44,4.24,4.24,0,0,1-1.68.81c-.61,0-.7-.61-.7-1.29a7.94,7.94,0,0,1,.26-1.72,6.37,6.37,0,0,0,.24-1.23c0-.39-.59-.83-.91-.83a3.94,3.94,0,0,0-1.78,1.09c-.89.87-1.11,1.07-1.89,1.86.48-1.21.94-2.66,1-2.87.08-.36.13-.58-.49-.89s-.71-.32-.89.39c-.85,3.23-1.49,4.91-1.49,5.37a.91.91,0,0,0,.26.61.76.76,0,0,0,.54.34c.37,0,.69-.45.95-.81s1-1.11,1.42-1.55c.12-.09,1.47-1.58,1.81-1.8a4.74,4.74,0,0,0-.06,3.41A2,2,0,0,0,139.32,55.72Z" transform="translate(-4.29 -5.53)"/><path class="cls-5" d="M148.27,55.72a1.3,1.3,0,0,0,.4,0C150,55.37,151.21,53,151,53a.42.42,0,0,0-.16.12,6.15,6.15,0,0,1-2.14,1.58.9.9,0,0,1-.22,0c-.36,0-.47-.26-.47-.71,0-1,.49-2.36.43-3.15,0-.56-.81-1.45-1.32-1.45-1,0-2.44,1.65-3.51,3.37,0-1.17,2.45-7.41,3.36-9a2.65,2.65,0,0,0,.42-1.16.77.77,0,0,0-.83-.64c-.73,0-2.44,4.62-3.37,7.07a18.92,18.92,0,0,0-1.47,5.57,1,1,0,0,0,1.09.91h.2c.42-.08.62-.5.95-1a14.48,14.48,0,0,1,3-3.7,21.93,21.93,0,0,0-.42,3.09A1.82,1.82,0,0,0,148.27,55.72Z" transform="translate(-4.29 -5.53)"/><path class="cls-5" d="M156.33,55.9c1.37-.14,2.84-2.85,2.24-2.38-.28.14-1.56,1.29-2.55,1.37-.52,0-.66-.3-.66-.73a10.22,10.22,0,0,1,1.27-3.91c.14-.25-.06-.55-.43-.73-.2-.12-.7-.38-.94,0-1.09-.75-2.47,0-3.42,1-1.63,1.74-2.74,4.6-.6,4.84.69.06,1.69-.42,2.93-1.77C154.29,55.13,155.18,56,156.33,55.9Zm-5-1.82c.81-2.06,2.77-4,3.33-3.47C154.65,51.72,150.92,55.37,151.32,54.08Z" transform="translate(-4.29 -5.53)"/><path class="cls-5" d="M164.83,55.72a2,2,0,0,0,.51-.06,2.93,2.93,0,0,0,1.51-1c.46-.45.69-1.15.52-1.07a5.44,5.44,0,0,0-.74.44,4.24,4.24,0,0,1-1.68.81c-.61,0-.7-.61-.7-1.29a7.94,7.94,0,0,1,.26-1.72,6.37,6.37,0,0,0,.24-1.23c0-.39-.59-.83-.91-.83a4,4,0,0,0-1.79,1.09c-.89.87-1.1,1.07-1.88,1.86.48-1.21.94-2.66,1-2.87.08-.36.12-.58-.49-.89s-.71-.32-.89.39c-.85,3.23-1.49,4.91-1.49,5.37a.91.91,0,0,0,.26.61.76.76,0,0,0,.54.34c.37,0,.69-.45.94-.81s1-1.11,1.43-1.55c.12-.09,1.47-1.58,1.8-1.8a4.78,4.78,0,0,0-.05,3.41A2,2,0,0,0,164.83,55.72Z" transform="translate(-4.29 -5.53)"/><path class="cls-5" d="M169.38,55.78a3,3,0,0,0,1.59-.41,6,6,0,0,0,1.25-1,2,2,0,0,0,.53-1.11c0-.1,0-.16-.08-.14-1,.71-2.49,1.66-3.68,1.66a.71.71,0,0,1-.6-.24.92.92,0,0,1-.17-.57,3.9,3.9,0,0,1,.91-2.06,4.06,4.06,0,0,1,1-1.11.81.81,0,0,1,.37-.16c.14,0,.2.16.54.22a1.57,1.57,0,0,0,.28,0,.34.34,0,0,0,.39-.36,1.7,1.7,0,0,0-.51-1,1.42,1.42,0,0,0-.93-.4,2.2,2.2,0,0,0-1.39.72A5.5,5.5,0,0,0,167,53.5a2.15,2.15,0,0,0,2.34,2.28Z" transform="translate(-4.29 -5.53)"/><path class="cls-5" d="M175.25,48.33c.51,0,1.15-1.19,1.15-1.66a.8.8,0,0,0-.18-.6,1,1,0,0,0-.62-.34c-.57,0-.83,1.13-.83,1.59a1.6,1.6,0,0,0,.12.73A.43.43,0,0,0,175.25,48.33Zm-.44,7.39c1.37-.12,3-2.63,2.4-2.22-.32.14-2.06,1.63-3,1.11A.72.72,0,0,1,174,54,8.81,8.81,0,0,1,175,50.37c.13-.28.1-.53-.6-.69-.41-.12-.59-.08-.85.55a17.17,17.17,0,0,0-.81,2.58C172.31,55.07,173.7,55.82,174.81,55.72Z" transform="translate(-4.29 -5.53)"/><path class="cls-5" d="M183.64,55.72a2.18,2.18,0,0,0,.52-.06,3,3,0,0,0,1.51-1c.45-.45.69-1.15.51-1.07a5.85,5.85,0,0,0-.73.44,4.28,4.28,0,0,1-1.69.81c-.61,0-.69-.61-.69-1.29a7.94,7.94,0,0,1,.26-1.72,6.37,6.37,0,0,0,.24-1.23c0-.39-.6-.83-.91-.83a4,4,0,0,0-1.79,1.09c-.89.87-1.11,1.07-1.88,1.86.47-1.21.93-2.66,1-2.87.08-.36.12-.58-.5-.89s-.71-.32-.89.39c-.85,3.23-1.48,4.91-1.48,5.37a.91.91,0,0,0,.26.61.72.72,0,0,0,.53.34c.38,0,.69-.45.95-.81s1-1.11,1.43-1.55c.12-.09,1.46-1.58,1.8-1.8a4.74,4.74,0,0,0-.06,3.41A2,2,0,0,0,183.64,55.72Z" transform="translate(-4.29 -5.53)"/><path class="cls-5" d="M185.88,63.51c2.81,0,4.46-3.72,5.27-6,.18-.5,1-3.63,1.35-5.45.18-.52.79-1.09.79-1.61a.68.68,0,0,0-.29-.55,1.21,1.21,0,0,0-.68-.28,1.39,1.39,0,0,0-.65.41,2.55,2.55,0,0,0-1.71-.85,1.69,1.69,0,0,0-.89.3,6.68,6.68,0,0,0-2.22,2.6,5.81,5.81,0,0,0-.73,2.31,1.53,1.53,0,0,0,.08.54,1.58,1.58,0,0,0,1.39,1c.94,0,2.83-2.26,3.58-3.39,0,.22-.12.68-.18.88-.24.85-.41,1.68-.49,1.94-.72,2.61-2.42,6.87-4.64,6.87-1.23,0-1.78-1-2.18-2.44-.14-.51-.36.5-.36,1A2.57,2.57,0,0,0,185.88,63.51Zm1.51-8.82c-.1,0-.14-.12-.14-.2a7.83,7.83,0,0,1,1.44-2.55c.28-.34,1.13-1.43,1.75-1.43a1.28,1.28,0,0,1,.63.34C190.48,51.86,188.08,54.69,187.39,54.69Z" transform="translate(-4.29 -5.53)"/><path class="cls-5" d="M204.9,55.72c.69-.73,1.18-3.25,2-5.33.67-.19,1.17-.21,1.82-.34.26,0,.1-.73-1.55-.79,1.16-3.86,2.44-6.16,2.4-6.54s-.87-1.2-1.11-.65-.51,1.25-.69,1.65A21.69,21.69,0,0,1,206.9,46c-.22.56-.48,1.19-1.17,3.41a31.07,31.07,0,0,0-3.25.4,51.5,51.5,0,0,0,1.8-5.55c.1-.5-1-1.62-1.19-1-.23,1-.51,1.92-.69,2.44-.42,1.44-.7,2.37-1.37,4.28-.47.17-.95.24-1.4.45s-1.11.52-.7,1.19c.18.46.3.58.5.52a7.84,7.84,0,0,0,1-.4,18.81,18.81,0,0,0-.77,2.44c-.11,1.48,1,2.06,1,1.12a10.45,10.45,0,0,1,1.24-4,24.82,24.82,0,0,1,3.43-.62c-.47,1.29-.61,2.22-1.23,4.3C204,55.66,204.58,56.08,204.9,55.72Z" transform="translate(-4.29 -5.53)"/><path class="cls-5" d="M211.65,55.78a4.47,4.47,0,0,0,3-1.48c.57-.68.57-1.37.46-1.25a5.42,5.42,0,0,1-3.69,1.74,1.13,1.13,0,0,1-.83-.25A1.61,1.61,0,0,1,210.5,53a2.31,2.31,0,0,0,1.17.33,1.06,1.06,0,0,0,.26,0,2.77,2.77,0,0,0,2-1.94,2.72,2.72,0,0,0,.16-.93,1.94,1.94,0,0,0,0-.34,1,1,0,0,0-.5-.73,1.24,1.24,0,0,0-.64-.18c-1.4,0-3.74,2-3.74,4.22a1.92,1.92,0,0,0,.71,1.71A3.05,3.05,0,0,0,211.65,55.78Zm-.7-3.6c.56-1,2.05-2.18,2.18-1.93s-1,1.45-1.2,1.59S211.31,52.36,211,52.18Z" transform="translate(-4.29 -5.53)"/><path class="cls-5" d="M220.82,55.9c1.37-.14,2.83-2.85,2.24-2.38-.28.14-1.57,1.29-2.56,1.37-.51,0-.65-.3-.65-.73a10.22,10.22,0,0,1,1.27-3.91c.14-.25-.06-.55-.44-.73-.2-.12-.69-.38-.93,0-1.09-.75-2.48,0-3.43,1-1.62,1.74-2.73,4.6-.59,4.84.69.06,1.68-.42,2.93-1.77C218.78,55.13,219.67,56,220.82,55.9Zm-5-1.82c.81-2.06,2.77-4,3.32-3.47C219.13,51.72,215.41,55.37,215.81,54.08Z" transform="translate(-4.29 -5.53)"/><path class="cls-5" d="M225.83,55.92A3.54,3.54,0,0,0,228,54.79a2.17,2.17,0,0,0,.61-1.31c-.07-.27-.22,0-.87.56a3.79,3.79,0,0,1-2.16,1c-1.05,0-1.09-1-1.09-1.37a13.17,13.17,0,0,0,2.78-3.31,22.31,22.31,0,0,0,1.94-3.64,7.44,7.44,0,0,0,.57-3c0-.75-.89-1.16-1.54-1.16a.94.94,0,0,0-.34,0,2.35,2.35,0,0,0-1.25,1.11,15.85,15.85,0,0,0-1.56,2.77,23,23,0,0,0-1.15,3,13,13,0,0,0-.74,3.63c0,1,.1,1.92.94,2.41A3.27,3.27,0,0,0,225.83,55.92Zm-1.27-3.65a16.84,16.84,0,0,1,.95-2.91c.91-2.2,2.68-5.7,3.15-5.7.08,0,.12.07.12.25a.9.9,0,0,1,0,.22,13.86,13.86,0,0,1-1.5,4.14,15.35,15.35,0,0,1-1.39,2.34A18,18,0,0,1,224.56,52.27Z" transform="translate(-4.29 -5.53)"/><path class="cls-5" d="M229.49,55.72a.43.43,0,0,0,.48-.25,4.41,4.41,0,0,1,0-.54,14.39,14.39,0,0,1,.33-1.64,20.68,20.68,0,0,1,.86-2.36c.51-.1,1-.16,1.6-.26,1-.18,2.32-1.19,1.59-1.19-.56,0-.95.06-1.57.08-.41,0-.73.08-1.13.08.3-.75.62-1.53.77-1.86.28-.66.8-1.83,1.06-2.48.09-.28-.4-.85-.86-.85a.65.65,0,0,0-.18,0,4.51,4.51,0,0,0-.77,1.42L230.74,48c-.34.81-.41,1-.67,1.68-1,.2-1.35,0-1.35.81,0,.32.08.48.43.48a4.36,4.36,0,0,1,.48,0,13,13,0,0,0-.91,3.54,1.28,1.28,0,0,0,.1.72A.83.83,0,0,0,229.49,55.72Z" transform="translate(-4.29 -5.53)"/><path class="cls-5" d="M240.41,55.72a1.33,1.33,0,0,0,.4,0c1.3-.31,2.53-2.73,2.27-2.73a.42.42,0,0,0-.16.12,6,6,0,0,1-2.13,1.58.94.94,0,0,1-.22,0c-.36,0-.48-.26-.48-.71,0-1,.5-2.36.44-3.15,0-.56-.81-1.45-1.33-1.45-1,0-2.44,1.65-3.51,3.37,0-1.17,2.46-7.41,3.37-9a2.78,2.78,0,0,0,.42-1.16.77.77,0,0,0-.83-.64c-.74,0-2.44,4.62-3.38,7.07a19.14,19.14,0,0,0-1.46,5.57,1,1,0,0,0,1.09.91h.2c.41-.08.61-.5,1-1a14.46,14.46,0,0,1,2.95-3.7,21.93,21.93,0,0,0-.42,3.09A1.83,1.83,0,0,0,240.41,55.72Z" transform="translate(-4.29 -5.53)"/><path class="cls-5" d="M244.84,55.78a3,3,0,0,0,1.59-.41,5.93,5.93,0,0,0,1.24-1,2,2,0,0,0,.54-1.11c0-.1,0-.16-.08-.14-1,.71-2.5,1.66-3.68,1.66a.71.71,0,0,1-.6-.24.92.92,0,0,1-.18-.57,4,4,0,0,1,.91-2.06,4.27,4.27,0,0,1,1-1.11.77.77,0,0,1,.37-.16c.14,0,.2.16.54.22a1.47,1.47,0,0,0,.27,0,.35.35,0,0,0,.4-.36,1.66,1.66,0,0,0-.52-1,1.39,1.39,0,0,0-.93-.4,2.18,2.18,0,0,0-1.38.72,5.45,5.45,0,0,0-1.79,3.62,2.15,2.15,0,0,0,2.34,2.28Z" transform="translate(-4.29 -5.53)"/><path class="cls-5" d="M253.85,55.9c1.37-.14,2.84-2.85,2.25-2.38-.29.14-1.57,1.29-2.56,1.37-.52,0-.65-.3-.65-.73a10.38,10.38,0,0,1,1.26-3.91c.14-.25-.06-.55-.43-.73-.2-.12-.7-.38-.94,0-1.09-.75-2.47,0-3.42,1-1.63,1.74-2.74,4.6-.6,4.84.7.06,1.69-.42,2.93-1.77C251.81,55.13,252.71,56,253.85,55.9Zm-5-1.82c.81-2.06,2.78-4,3.33-3.47C252.17,51.72,248.44,55.37,248.84,54.08Z" transform="translate(-4.29 -5.53)"/><path class="cls-5" d="M257,55.74c.22,0,.6-.87.78-1.33s.49-1,.75-1.54a6.93,6.93,0,0,1,1.64-2c.36.83.7,1.21,1.37,1.21.32,0,.75-.52.61-.62a2.64,2.64,0,0,1-.93-1.45c-.19-.61-.75-.81-1.17-.45a9.37,9.37,0,0,0-2,2.5,12.91,12.91,0,0,0,.71-2.2c0-.32,0-.52-.85-.86-.26-.09-.65.16-1.48,3.75a23.05,23.05,0,0,0-.54,2.34C255.89,55.47,256,55.74,257,55.74Z" transform="translate(-4.29 -5.53)"/><path class="cls-5" d="M264.81,55.78a4.47,4.47,0,0,0,3-1.48c.57-.68.57-1.37.45-1.25a5.38,5.38,0,0,1-3.68,1.74,1.13,1.13,0,0,1-.83-.25,1.61,1.61,0,0,1-.12-1.53,2.28,2.28,0,0,0,1.17.33,1,1,0,0,0,.25,0,2.74,2.74,0,0,0,2-1.94,2.5,2.5,0,0,0,.16-.93,1.94,1.94,0,0,0,0-.34.92.92,0,0,0-.49-.73,1.24,1.24,0,0,0-.64-.18c-1.4,0-3.74,2-3.74,4.22a1.92,1.92,0,0,0,.71,1.71A3.05,3.05,0,0,0,264.81,55.78Zm-.7-3.6c.56-1,2-2.18,2.18-1.93s-1,1.45-1.21,1.59S264.47,52.36,264.11,52.18Z" transform="translate(-4.29 -5.53)"/></svg>